<svg class="icon" viewBox="0 0 1024 1024" xmlns="http://www.w3.org/2000/svg" width="16" height="16"><path d="M0 512a512 512 0 1 0 1024 0A512 512 0 1 0 0 512Z" fill="#2674FD"/><path d="M86.428 512a425.572 425.572 0 1 0 851.144 0 425.572 425.572 0 1 0-851.144 0Z" fill="#FFF"/><path d="M297.729 512a214.271 214.271 0 1 0 428.542 0 214.271 214.271 0 1 0-428.542 0Z" fill="#FFE41F"/><path d="m635.968 408.154-89.224-8.723a15.98 15.98 0 0 0-16.86 11.48l-1.784 6.285a22.373 22.373 0 0 0-2.237 5.194l-26.088 91.754a67.41 67.41 0 1 0 12.984 61.498c.333-1.185.64-2.37.906-3.556h.093l33.106-116.457 48.527-1.891a48.847 48.847 0 0 0 37.767-20.308l8.736-12.159a8.336 8.336 0 0 0-5.926-13.117z" fill="#FFF"/><path d="M214.231 503.384C218.76 342.82 350.345 214.044 512 214.044s293.241 128.776 297.769 289.34h214.151C1019.34 224.618 791.91 0 512 0S4.648 224.618.08 503.384z" fill="#2674FD"/></svg>